<svg viewBox="0 0 1440 100" xmlns="http://www.w3.org/2000/svg" xmlns:xlink="http://www.w3.org/1999/xlink"><path d="M0 67L26.7 61.2C53.3 55.3 106.7 43.7 160 48C213.3 52.3 266.7 72.7 320 67.3C373.3 62 426.7 31 480 18.8C533.3 6.7 586.7 13.3 640 26.2C693.3 39 746.7 58 800 60.3C853.3 62.7 906.7 48.3 960 38C1013.3 27.7 1066.7 21.3 1120 20.5C1173.3 19.7 1226.7 24.3 1280 23.2C1333.3 22 1386.7 15 1413.3 11.5L1440 8" fill="none" stroke-linecap="round" stroke-linejoin="miter" stroke="#ff71da" stroke-width="20"></path></svg>