<svg viewBox="0 0 1440 100" xmlns="http://www.w3.org/2000/svg" xmlns:xlink="http://www.w3.org/1999/xlink"><path d="M0 2L26.7 9.3C53.3 16.7 106.7 31.3 160 37.2C213.3 43 266.7 40 320 45.7C373.3 51.3 426.7 65.7 480 75.2C533.3 84.7 586.7 89.3 640 76C693.3 62.7 746.7 31.3 800 25.5C853.3 19.7 906.7 39.3 960 49.5C1013.3 59.7 1066.7 60.3 1120 58.2C1173.3 56 1226.7 51 1280 52.8C1333.3 54.7 1386.7 63.3 1413.3 67.7L1440 72" fill="none" stroke-linecap="round" stroke-linejoin="miter" stroke="#a962f5" stroke-width="20"></path></svg>