<svg viewBox="0 0 1440 100" xmlns="http://www.w3.org/2000/svg" xmlns:xlink="http://www.w3.org/1999/xlink"><path d="M0 80L26.7 71C53.3 62 106.7 44 160 39.8C213.3 35.7 266.7 45.3 320 48.7C373.3 52 426.7 49 480 44C533.3 39 586.7 32 640 28C693.3 24 746.7 23 800 26C853.3 29 906.7 36 960 40.7C1013.3 45.3 1066.7 47.7 1120 41.7C1173.3 35.7 1226.7 21.3 1280 18.2C1333.3 15 1386.7 23 1413.3 27L1440 31" fill="none" stroke-linecap="round" stroke-linejoin="miter" stroke="#6c63ff" stroke-width="20"></path></svg>