<svg viewBox="0 0 1440 100" xmlns="http://www.w3.org/2000/svg" xmlns:xlink="http://www.w3.org/1999/xlink"><path d="M0 26L26.7 33.7C53.3 41.3 106.7 56.7 160 55.3C213.3 54 266.7 36 320 26.3C373.3 16.7 426.7 15.3 480 27.2C533.3 39 586.7 64 640 70.8C693.3 77.7 746.7 66.3 800 60.8C853.3 55.3 906.7 55.7 960 59.5C1013.3 63.3 1066.7 70.7 1120 76.2C1173.3 81.7 1226.7 85.3 1280 76.3C1333.3 67.3 1386.7 45.7 1413.3 34.8L1440 24" fill="none" stroke-linecap="round" stroke-linejoin="miter" stroke="#39a1fc" stroke-width="20"></path></svg>